<svg width="954" height="214" viewBox="0 0 954 214" fill="none" xmlns="http://www.w3.org/2000/svg">
<rect width="954" height="214" fill="black"/>
<rect x="75.5" y="0.5" width="219" height="213" rx="9.5" fill="#040000" stroke="white"/>
<path d="M295 79L75 79" stroke="white"/>
<rect x="659.5" y="0.5" width="219" height="213" rx="9.5" fill="#040000" stroke="white"/>
<path d="M879 79L659 79" stroke="white"/>
<rect x="367.5" y="0.5" width="219" height="213" rx="9.5" fill="#040000" stroke="white"/>
<path d="M587 79L367 79" stroke="white"/>
<path d="M0.939342 105.939C0.353555 106.525 0.353555 107.475 0.939342 108.061L10.4853 117.607C11.0711 118.192 12.0208 118.192 12.6066 117.607C13.1924 117.021 13.1924 116.071 12.6066 115.485L4.12132 107L12.6066 98.5147C13.1924 97.9289 13.1924 96.9792 12.6066 96.3934C12.0208 95.8076 11.0711 95.8076 10.4853 96.3934L0.939342 105.939ZM3.41422 105.5H2V108.5H3.41422V105.5Z" fill="white"/>
<path d="M953.475 108.061C954.061 107.475 954.061 106.525 953.475 105.939L943.929 96.3934C943.343 95.8076 942.393 95.8076 941.808 96.3934C941.222 96.9792 941.222 97.9289 941.808 98.5147L950.293 107L941.808 115.485C941.222 116.071 941.222 117.021 941.808 117.607C942.393 118.192 943.343 118.192 943.929 117.607L953.475 108.061ZM951 108.5H952.414V105.5H951V108.5Z" fill="white"/>
</svg>
